<svg xmlns="http://www.w3.org/2000/svg" version="1.1" height="250" width="250" viewBox="0 -20 420 450">	<g>		<path fill="#ed1c24" d="M147,383.5 147,341.9 64.3,294.1 64.3,125.9 64.3,125.9 210,41.7 219,46.9 219,352.3 255,331.5 280,239.8 301.7,304.5 337.7,283.7 337.7,136.3 301.7,115.5 301.7,228 280,166.5 255,228 255,26.2 210,0.2 28.3,105.1 28.3,314.9 147,383.5">		</path>		<path fill="#ed1c24" d="M273,36.5 273,78.1 355.7,125.9 355.7,294.1 210,378.3 201,373.1 201,310.7 118.3,263 118.3,157 201,109.3 201,67.7 82.3,136.3 82.3,283.7 165,331.5 165,393.8 210,419.8 391.7,314.9 391.7,105.1z">		</path>	</g></svg>