<svg id="组_1" data-name="组 1" xmlns="http://www.w3.org/2000/svg" width="250" height="250" viewBox="0 0 250 250">
  <defs>
    <style>
      .cls-1 {
        fill: #ef4c26;
        fill-rule: evenodd;
      }
    </style>
  </defs>
  <path id="椭圆_1_拷贝_2" data-name="椭圆 1 拷贝 2" class="cls-1" d="M142.113,19.9L161.77,39.556a24,24,0,0,1,0,33.941L73.5,161.77a24,24,0,0,1-33.941,0L19.9,142.113a24,24,0,0,1,0-33.941L108.172,19.9A24,24,0,0,1,142.113,19.9Zm-2.759,22.82a20.1,20.1,0,1,1-28.422,0A20.1,20.1,0,0,1,139.354,42.719ZM71.141,110.932a20.1,20.1,0,1,1-28.422,0A20.1,20.1,0,0,1,71.141,110.932Z"/>
  <path id="圆角矩形_2" data-name="圆角矩形 2" class="cls-1" d="M210.439,88.225L230.1,107.881a24,24,0,0,1,0,33.941L141.822,230.1a24,24,0,0,1-33.941,0L88.225,210.439a24,24,0,0,1,0-33.941L176.5,88.225A24,24,0,0,1,210.439,88.225Zm-71.923,61.388H178.8a9,9,0,0,1,9,9v2.1a9,9,0,0,1-9,9H138.516a9,9,0,0,1-9-9v-2.1A9,9,0,0,1,138.516,149.613Zm19.03-19.155h2.1a9,9,0,0,1,9,9V179.74a9,9,0,0,1-9,9h-2.1a9,9,0,0,1-9-9V139.458A9,9,0,0,1,157.546,130.458Z"/>
</svg>
