<svg id="图层_1" data-name="图层 1" xmlns="http://www.w3.org/2000/svg" xmlns:xlink="http://www.w3.org/1999/xlink" viewBox="0 0 210.4 210.4"><defs><style>.cls-1,.cls-2,.cls-5,.cls-6{fill-rule:evenodd;}.cls-2{fill:url(#未命名的渐变);}.cls-3{mask:url(#mask);}.cls-4{filter:url(#d);}.cls-5{fill:url(#未命名的渐变_2);}.cls-6{fill:url(#未命名的渐变_3);}.cls-7{fill:url(#未命名的渐变_4);}.cls-8{fill:url(#未命名的渐变_5);}</style><linearGradient id="未命名的渐变" x1="-838.85" y1="663.08" x2="-838.85" y2="664.31" gradientTransform="matrix(-116.28, -116.28, -116.28, 116.28, -20244.75, -174580.7)" gradientUnits="userSpaceOnUse"><stop offset="0" stop-color="#3967ff"/><stop offset="1" stop-color="#b500fe"/></linearGradient><mask id="mask" x="-52.87" y="-61.42" width="262.03" height="194.61" maskUnits="userSpaceOnUse"><g transform="translate(-19.8 -19.8)"><g id="c"><g id="svg_1" data-name="svg 1"><path id="a" class="cls-1" d="M-7.6-41.6A25.5,25.5,0,0,1,17.9-16.2,25.5,25.5,0,0,1-7.6,9.3,25.5,25.5,0,0,1-33.1-16.2,25.5,25.5,0,0,1-7.6-41.6Zm0,9.1A16.4,16.4,0,0,0-24-16.2,16.4,16.4,0,0,0-7.6.2,16.3,16.3,0,0,0,8.7-16.2,16.3,16.3,0,0,0-7.6-32.5Z"/></g></g></g></mask><filter id="d" x="-122.1%" y="-143%" width="344.3%" height="364.2%" name="d"><feGaussianBlur stdDeviation="9"/></filter><linearGradient id="123456" x1="-842.54" y1="663.41" x2="-842.54" y2="662.13" gradientTransform="matrix(-68.78, -68.78, -80.04, 80.04, -4755.32, -110897.14)" xlink:href="#未命名的渐变"/><linearGradient id="未命名的渐变_3" x1="-842.54" y1="662.19" x2="-842.54" y2="660.91" gradientTransform="matrix(-68.78, -68.78, -56.21, 56.21, -20600.46, -95052)" gradientUnits="userSpaceOnUse"><stop offset="0" stop-color="#1c98ff"/><stop offset="1" stop-color="#574ae4"/></linearGradient><linearGradient id="未命名的渐变_4" x1="-863.27" y1="655.84" x2="-864.21" y2="654.75" gradientTransform="matrix(0, -29.07, -29.07, 0, 19157.95, -24969.21)" gradientUnits="userSpaceOnUse"><stop offset="0" stop-color="#ef478f"/><stop offset="1" stop-color="#ae48c0"/></linearGradient><linearGradient id="未命名的渐变_5" x1="-863.27" y1="655.84" x2="-864.21" y2="654.75" gradientTransform="matrix(0, -29.07, -29.07, 0, 19157.95, -24969.21)" gradientUnits="userSpaceOnUse"><stop offset="0" stop-color="#ff4695"/><stop offset="1" stop-color="#cc34e7"/></linearGradient></defs><g id="svg_2" data-name="svg 2"><g id="svg_4" data-name="svg 4"><g id="svg_5" data-name="svg 5"><path id="a-2" data-name="a" class="cls-2" d="M50.6,199.4a105.2,105.2,0,1,1,148.8,0,105.2,105.2,0,0,1-148.8,0Zm26.6-26.6a67.6,67.6,0,1,0,0-95.6A67.8,67.8,0,0,0,77.2,172.8Z" transform="translate(-19.8 -19.8)"/></g><g class="cls-3"><g id="svg_6" data-name="svg 6"><g id="svg_7" data-name="svg 7" class="cls-4"><path id="e" class="cls-1" d="M96.9,153l44-132.1a105.2,105.2,0,0,1,88,88.1Z" transform="translate(-19.8 -19.8)"/></g><g id="svg_8" data-name="svg 8"><path id="e-2" data-name="e" class="cls-5" d="M96.9,153l44-132.1a105.2,105.2,0,0,1,88,88.1Z" transform="translate(-19.8 -19.8)"/></g></g></g><path id="svg_9" data-name="svg 9" class="cls-6" d="M133.7,115.6a30.3,30.3,0,0,0-21.2-9.1l28.6-85.8a104.8,104.8,0,0,1,58.4,29.7,103.8,103.8,0,0,1,29.6,58.4l-86.3,28.7a30.2,30.2,0,0,0-9.1-21.9Z" transform="translate(-19.8 -19.8)"/><g id="svg_10" data-name="svg 10"><circle id="i" class="cls-7" cx="111.2" cy="138.2" r="18.6" transform="translate(-84.9 99.3) rotate(-45)"/></g><g id="svg_11" data-name="svg 11"><circle id="i-2" data-name="i" class="cls-8" cx="111.2" cy="138.2" r="18.6" transform="translate(-84.9 99.3) rotate(-45)"/></g></g></g></svg>