<?xml version="1.0" encoding="utf-8"?>
<!-- Generator: Adobe Illustrator 25.0.0, SVG Export Plug-In . SVG Version: 6.00 Build 0)  -->
<svg version="1.1" id="图层_1" xmlns="http://www.w3.org/2000/svg" xmlns:xlink="http://www.w3.org/1999/xlink" x="0px" y="0px"
	 viewBox="0 0 217.2 217.2" style="enable-background:new 0 0 217.2 217.2;" xml:space="preserve">
<style type="text/css">
	.st0{fill:url(#SVGID_1_);}
	.st1{fill:url(#SVGID_2_);}
</style>
<g id="e39fd9b9-6ba3-49ba-83a2-56c87b1e350f">
	
		<linearGradient id="SVGID_1_" gradientUnits="userSpaceOnUse" x1="22.5732" y1="111.4" x2="194.6268" y2="111.4" gradientTransform="matrix(1 0 0 -1 0 220)">
		<stop  offset="0" style="stop-color:#A60CFE"/>
		<stop  offset="0.63" style="stop-color:#6448F4"/>
		<stop  offset="1" style="stop-color:#4168EF"/>
	</linearGradient>
	<path class="st0" d="M79.5,22.6h58.1c31.5,0,57,25.5,57,57v58.1c0,31.5-25.5,57-57,57H79.5c-31.5,0-57-25.5-57-57V79.5
		C22.6,48.1,48.1,22.6,79.5,22.6z"/>
</g>
<g id="edcfbf5d-c53b-4c06-9c05-b8ad6b312fff">
	
		<linearGradient id="SVGID_2_" gradientUnits="userSpaceOnUse" x1="90.2273" y1="86.9474" x2="164.3561" y2="84.9433" gradientTransform="matrix(1 0 0 -1 -16.4 202.1)">
		<stop  offset="0" style="stop-color:#D838D4"/>
		<stop  offset="0.5" style="stop-color:#D637D2"/>
		<stop  offset="0.67" style="stop-color:#CF33CD"/>
		<stop  offset="0.8" style="stop-color:#C42DC2"/>
		<stop  offset="0.9" style="stop-color:#B324B4"/>
		<stop  offset="0.98" style="stop-color:#A11BA5"/>
	</linearGradient>
	<path class="st1" d="M143,56.8c2.9,0,5.3,2.5,5.3,6c0,2.9-2.4,5.3-5.3,5.4h-30.6v102.5c0.1,3-2.2,5.5-5.2,5.5c-0.1,0-0.3,0-0.4,0
		c-3-0.1-5.4-2.6-5.3-5.5V68.2H71.8c-3,0-5.3-2.5-5.3-5.7c0-3.2,2.3-5.7,5.3-5.7L143,56.8z"/>
</g>
</svg>
