<svg xmlns="http://www.w3.org/2000/svg" width="399.99" height="399.99" viewBox="0 0 402 402">
  <defs>
    <style>
      .cls-1 {
        fill: #e382a3;
      }

      .cls-1, .cls-2, .cls-3, .cls-4 {
        fill-rule: evenodd;
      }

      .cls-2 {
        fill: #de6e94;
      }

      .cls-3 {
        fill: none;
        stroke: #fff;
        stroke-width: 5px;
      }

      .cls-4 {
        fill: #fff;
      }
    </style>
  </defs>
  <path id="椭圆_1" data-name="椭圆 1" class="cls-1" d="M200.611,6.658c108.223,0,195.955,87.732,195.955,195.955S308.834,398.568,200.611,398.568,4.656,310.836,4.656,202.613,92.388,6.658,200.611,6.658ZM152.541,271.8"/>
  <path id="形状_1" data-name="形状 1" class="cls-2" d="M152.541,268.594L211,397c57.5,2.813,140.231-48.2,165-108-11.764-24.6-37.381-78.155-37.381-78.155L162.166,140.264Z"/>
  <path id="椭圆_1_拷贝" data-name="椭圆 1 拷贝" class="cls-3" d="M200.611,6.658c108.223,0,195.955,87.732,195.955,195.955S308.834,398.568,200.611,398.568,4.656,310.836,4.656,202.613,92.388,6.658,200.611,6.658ZM152.541,271.8"/>
  <path id="形状_317_1" data-name="形状 317 1" class="cls-4" d="M108.454,92.277l233.52,117.246-75.141,26.558L157.36,143.45l82.267,99.757-88.744,26.882ZM239.627,261.344v53.441l-28.178-42.429Z"/>
</svg>
